<svg xmlns="http://www.w3.org/2000/svg" width="400" height="400" viewBox="0 0 400 400" version="1.1"><path d="M 116.110 157.396 C 110.406 160.557, 109.304 168.458, 113.923 173.077 C 116.285 175.439, 117.707 176, 121.334 176 C 125.118 176, 126.228 175.517, 128.411 172.923 C 135.687 164.276, 125.926 151.955, 116.110 157.396 M 177.500 171.961 C 161.349 173.445, 136.423 178.736, 127.693 182.533 C 124.989 183.709, 124.844 183.928, 126.750 183.961 C 128.500 183.991, 129 184.581, 129 186.617 C 129 188.842, 129.336 189.143, 131.250 188.630 C 132.488 188.299, 134.063 188.021, 134.750 188.014 C 135.438 188.006, 136 187.132, 136 186.071 C 136 184.344, 136.918 184.098, 144.750 183.724 C 149.563 183.494, 155.300 182.793, 157.500 182.165 C 163.715 180.392, 190.959 178, 204.911 178.002 C 225.579 178.006, 261.257 181.134, 263.450 183.134 C 263.972 183.610, 270.947 183.977, 278.950 183.948 C 292.450 183.901, 293.248 183.796, 290 182.497 C 283.039 179.712, 267.213 176.031, 253.500 174.008 C 237.740 171.683, 193.487 170.491, 177.500 171.961 M 60.512 181.631 C 59.004 183.138, 59.271 183.484, 64.049 186.213 C 70.583 189.944, 76.941 196.275, 79.641 201.735 L 81.734 205.969 69.617 218.255 C 55.995 232.066, 51.908 238.308, 53.787 242.432 C 54.430 243.844, 55.529 244.991, 56.229 244.979 C 56.928 244.968, 59.228 242.248, 61.340 238.936 C 65.355 232.639, 81.491 215, 83.236 215 C 84.208 215, 83.789 226.136, 82.409 237.020 C 81.928 240.807, 82.183 241.856, 83.979 243.481 C 85.806 245.134, 86.257 245.205, 87.038 243.960 C 89.281 240.385, 91.183 227.718, 90.847 218.591 L 90.500 209.153 98.500 204.176 C 107.524 198.563, 112.567 195.901, 113.124 196.457 C 113.331 196.665, 113.344 194.862, 113.153 192.450 L 112.804 188.066 107.904 190.549 C 105.209 191.914, 99.651 195.014, 95.551 197.438 L 88.099 201.844 85.484 197.382 C 77.800 184.271, 65.580 176.563, 60.512 181.631 M 168 190.500 C 169.292 191.875, 170.574 193, 170.849 193 C 171.124 193, 170.292 191.875, 169 190.500 C 167.708 189.125, 166.426 188, 166.151 188 C 165.876 188, 166.708 189.125, 168 190.500 M 318 197 C 318 197.643, 305.602 198.079, 283.250 198.222 L 248.500 198.445 280.145 198.972 L 311.789 199.500 318.865 204.336 C 322.757 206.996, 328.664 211.602, 331.993 214.573 C 338.692 220.550, 341.683 221.775, 345.104 219.944 C 347.352 218.741, 347.275 218.612, 340.947 212.892 C 334.575 207.132, 319.873 196, 318.638 196 C 318.287 196, 318 196.450, 318 197 M 246 203.941 C 246 205.559, 246.356 207.102, 246.791 207.371 C 247.226 207.640, 247.402 206.316, 247.182 204.430 C 246.691 200.227, 246 199.941, 246 203.941 M 246.252 225.500 C 246.263 227.700, 246.468 228.482, 246.707 227.238 C 246.946 225.994, 246.937 224.194, 246.687 223.238 C 246.437 222.282, 246.241 223.300, 246.252 225.500 M 188 236.313 C 188 236.485, 189.463 237.948, 191.250 239.563 L 194.500 242.500 191.563 239.250 C 188.825 236.221, 188 235.540, 188 236.313" stroke="none" fill="#ef761e" fill-rule="evenodd"/><path d="M 113.030 214.542 L 112.978 245.085 120.739 244.792 L 128.500 244.500 128.715 214.250 L 128.930 184 121.006 184 L 113.082 184 113.030 214.542 M 136 214.395 L 136 245 143.500 245 L 151 245 151 222 L 151 199 153.250 199.022 C 156.470 199.054, 158.294 200.800, 172.032 217 C 188.288 236.168, 193.813 241.849, 197.872 243.570 C 200.132 244.529, 204.996 245, 212.622 245 L 224 245 224 214.500 L 224 184 216.500 184 L 209 184 209 207.500 C 209 238.346, 210.152 238.254, 184.899 209.414 C 175.507 198.687, 165.983 188.693, 163.735 187.205 C 159.978 184.719, 158.691 184.471, 147.824 184.145 L 136 183.789 136 214.395 M 239.328 185.938 C 231.810 189.351, 231.500 190.488, 231.500 214.633 C 231.500 246.837, 228.545 244.996, 280.250 244.998 L 318 245 318 238 L 318 231 283.200 231 C 257.467 231, 248.087 230.687, 247.200 229.800 C 246.540 229.140, 246 227.115, 246 225.300 L 246 222 281.544 222 L 317.088 222 316.794 214.750 L 316.500 207.500 281.500 207.294 L 246.500 207.089 246.196 204.170 C 245.553 198, 245.554 198, 283.571 198 L 318 198 318 191 L 318 184 280.750 184.022 C 246.356 184.042, 243.180 184.189, 239.328 185.938" stroke="none" fill="#f9f9f9" fill-rule="evenodd"/><path d="M -0 200.002 L -0 400.005 200.250 399.752 L 400.500 399.500 400.752 199.750 L 401.005 0 200.502 0 L 0 0 -0 200.002 M 0.490 200.500 C 0.490 310.500, 0.607 355.352, 0.750 300.170 C 0.893 244.989, 0.893 154.989, 0.750 100.170 C 0.607 45.352, 0.490 90.500, 0.490 200.500 M 116.110 157.396 C 110.406 160.557, 109.304 168.458, 113.923 173.077 C 116.285 175.439, 117.707 176, 121.334 176 C 125.118 176, 126.228 175.517, 128.411 172.923 C 135.687 164.276, 125.926 151.955, 116.110 157.396 M 177.500 171.961 C 161.364 173.444, 136.919 178.629, 127.493 182.568 C 125.607 183.355, 121.575 184, 118.532 184 C 113.682 184, 113 184.245, 113 185.983 C 113 187.358, 111.468 188.743, 108.002 190.499 C 105.253 191.892, 99.651 195.014, 95.551 197.438 L 88.099 201.844 85.484 197.382 C 77.800 184.271, 65.580 176.563, 60.512 181.631 C 59.004 183.138, 59.271 183.484, 64.049 186.213 C 70.583 189.944, 76.941 196.275, 79.641 201.735 L 81.734 205.969 69.617 218.255 C 55.995 232.066, 51.908 238.308, 53.787 242.432 C 54.430 243.844, 55.529 244.991, 56.229 244.979 C 56.928 244.968, 59.228 242.248, 61.340 238.936 C 65.355 232.639, 81.491 215, 83.236 215 C 84.208 215, 83.789 226.136, 82.409 237.020 C 81.928 240.807, 82.183 241.856, 83.979 243.481 C 85.806 245.134, 86.257 245.205, 87.038 243.960 C 89.281 240.385, 91.183 227.718, 90.847 218.591 L 90.500 209.153 98.500 204.176 C 102.900 201.439, 107.963 198.468, 109.750 197.574 L 113 195.949 113 220.474 L 113 245 121 245 L 129 245 129 217.117 L 129 189.233 131.250 188.630 C 136.178 187.310, 136 186.263, 136 216.500 L 136 245 143.500 245 L 151 245 151 222 C 151 191.466, 149.853 191.484, 175.653 221.604 C 186.652 234.446, 193.702 241.828, 196.166 243.085 C 199.250 244.658, 202.072 245, 211.960 245 L 224 245 224 214.500 L 224 184 216.250 183.999 L 208.500 183.998 208.787 206.662 C 208.951 219.594, 208.679 229.721, 208.152 230.248 C 206.542 231.858, 201.383 228.304, 195.823 221.752 C 167.312 188.155, 162.917 184.049, 155.390 183.970 C 150.704 183.920, 154.581 182.372, 162.500 181.131 C 188.005 177.133, 222.094 177.103, 253 181.051 C 265.869 182.695, 265.708 183.387, 252.320 183.970 C 242.103 184.415, 239.686 184.834, 237.320 186.571 C 231.622 190.756, 231.003 193.540, 231.002 215.016 C 231 232.015, 231.237 234.981, 232.835 238.016 C 236.473 244.925, 236.958 244.997, 279.750 244.998 L 318 245 318 238.013 L 318 231.026 282.750 230.763 L 247.500 230.500 247.193 226.250 L 246.885 222 281.943 222 L 317 222 317 214.500 L 317 207 282 207 L 247 207 247 203 L 247 199 278.916 199 L 310.832 199 318.236 203.952 C 322.308 206.675, 328.431 211.394, 331.843 214.439 C 338.688 220.546, 341.668 221.783, 345.104 219.944 C 347.352 218.741, 347.276 218.612, 340.947 212.876 C 337.401 209.663, 330.811 204.439, 326.302 201.267 L 318.103 195.500 318.052 189.750 L 318 184 306.020 184 C 297.943 184, 292.812 183.527, 290.270 182.548 C 282.702 179.632, 267.169 176.024, 253.500 174.008 C 237.740 171.683, 193.487 170.491, 177.500 171.961" stroke="none" fill="#1c1c1c" fill-rule="evenodd"/></svg>