<svg xmlns="http://www.w3.org/2000/svg" width="820" height="293" viewBox="0 0 820 293" version="1.1"><path d="M 107.688 110.250 C 107.402 142.288, 106.685 172.550, 106.095 177.500 C 105.505 182.450, 103.373 198.318, 101.356 212.762 C 99.340 227.205, 98.022 239.355, 98.428 239.762 C 99.371 240.704, 129.597 240.737, 130.537 239.796 C 130.924 239.409, 129.834 229.509, 128.114 217.796 C 121.678 173.965, 121.798 175.825, 121.289 111.750 L 120.815 52 114.512 52 L 108.209 52 107.688 110.250 M 74.140 61.018 C 63.248 66.182, 55.149 72.064, 46.435 81.141 C 38.419 89.491, 34.690 94.675, 29.990 104 C 22.183 119.493, 19.452 132.768, 20.275 151.239 C 21.374 175.900, 29.420 194.145, 47.278 212.468 L 57.056 222.500 63.105 211 C 66.431 204.675, 72.606 192.750, 76.827 184.500 L 84.500 169.500 84.782 113.250 C 85.008 68.015, 84.813 57.005, 83.782 57.028 C 83.077 57.043, 78.738 58.838, 74.140 61.018 M 144 113.002 L 144 169.138 157.120 194.819 C 164.335 208.944, 170.609 220.901, 171.060 221.391 C 172.500 222.952, 189.266 205.075, 194.763 196.118 C 217.649 158.822, 212.231 111.372, 181.545 80.372 C 171.254 69.976, 156.859 60.659, 146.250 57.529 L 144 56.865 144 113.002" stroke="none" fill="#3071cc" fill-rule="evenodd"/><path d="M 411.987 83.299 C 402.088 85.534, 395.667 91.024, 392.520 99.944 C 391.234 103.587, 391 112.327, 391 156.626 L 391 209 402 209 L 413 209 413 174 L 413 139 429.500 139 L 446 139 446 174 L 446 209 457 209 L 468 209 468 174 L 468 139 478 139 L 488 139 488 130 L 488 121 478 121 L 468 121 468.024 116.750 C 468.058 110.593, 469.571 104.984, 471.798 102.757 C 473.944 100.612, 479.251 100.037, 485.250 101.301 L 489 102.091 489 93.116 L 489 84.142 483.250 82.940 C 472.865 80.769, 460.234 83.920, 453.891 90.263 C 448.425 95.729, 446.661 100.539, 446.193 111.250 L 445.767 121 429.252 121 L 412.737 121 413.203 113.750 C 413.459 109.762, 414.306 105.474, 415.084 104.220 C 417.115 100.949, 422.813 99.456, 428.123 100.803 C 430.464 101.398, 432.744 101.658, 433.190 101.383 C 433.635 101.107, 434 97.324, 434 92.976 C 434 86.301, 433.711 84.916, 432.146 84.078 C 429.034 82.413, 417.830 81.980, 411.987 83.299 M 300 90.593 C 277.017 96.698, 261.126 113.612, 256.433 136.966 C 251.018 163.909, 262.445 190.249, 285 202.815 C 303.210 212.960, 331.655 212.568, 349.599 201.926 C 369.728 189.987, 380.496 165.631, 377 139.950 C 373.602 114.998, 358.683 97.630, 335.013 91.071 C 325.966 88.564, 308.534 88.326, 300 90.593 M 528 90.814 C 508.033 96.033, 497.038 112.416, 500.928 131.153 C 504.029 146.092, 514.680 153.577, 539.088 157.972 C 553.725 160.608, 557.048 161.560, 561.099 164.278 C 567.817 168.786, 568.387 179.308, 562.248 185.506 C 557.844 189.951, 553.424 191.391, 544.356 191.333 C 530.798 191.246, 523.959 186.537, 521.498 175.596 L 520.352 170.500 508.534 170.217 L 496.717 169.934 497.390 175.717 C 498.281 183.377, 502.671 192.487, 508.049 197.837 C 516.561 206.304, 527.874 210.071, 544.779 210.068 C 560.751 210.065, 572.156 206.031, 580.517 197.430 C 591.356 186.277, 593.704 168.984, 586.185 155.675 C 580.930 146.375, 570.848 141.291, 551.076 137.972 C 534.747 135.232, 529.641 133.551, 526.575 129.907 C 524.667 127.639, 524 125.713, 524 122.470 C 524 112.647, 528.857 108.792, 541.944 108.229 C 549.371 107.910, 551.094 108.167, 555 110.181 C 559.339 112.417, 562.750 117.111, 564.276 122.947 C 564.777 124.864, 565.558 125, 576.020 125 L 587.227 125 586.541 120.250 C 585.010 109.644, 578.197 99.602, 569.217 94.715 C 558.898 89.099, 541.032 87.408, 528 90.814 M 309.270 109.054 C 299.122 111.057, 290.361 117.452, 285.967 126.065 C 278.807 140.100, 279.710 162.052, 287.974 174.839 C 294.637 185.148, 303.955 190, 317.088 190 C 334.835 190, 347.002 179.906, 351.016 161.855 C 352.841 153.648, 351.844 137.021, 349.097 129.853 C 344.855 118.781, 335.688 111.338, 323.526 109.089 C 316.914 107.867, 315.304 107.863, 309.270 109.054 M 788.602 121.717 C 789.547 125.724, 791 126.926, 791 123.700 C 791 122.215, 791.450 121, 792 121 C 792.550 121, 793 122.125, 793 123.500 C 793 124.875, 793.450 126, 794 126 C 794.550 126, 795.007 125.438, 795.015 124.750 C 795.025 123.976, 795.310 123.881, 795.765 124.500 C 796.169 125.050, 797.288 125.563, 798.250 125.639 C 799.600 125.746, 800 125.003, 800 122.389 C 800 118.767, 798.650 117.868, 797.540 120.750 C 796.949 122.284, 796.759 122.310, 796 120.959 C 795.522 120.108, 793.526 119.309, 791.540 119.176 C 788.081 118.943, 787.970 119.039, 788.602 121.717 M 630.856 122.262 C 619.672 126.165, 612.414 132.302, 607.490 142.020 C 597.794 161.153, 601.099 185.400, 615.199 198.589 C 624.791 207.561, 638.121 211.384, 654.500 209.858 C 671.966 208.232, 685.415 197.763, 687.601 184.092 L 688.256 180 677.675 180 L 667.094 180 665.090 184.530 C 662.490 190.408, 657.322 192.956, 648 192.956 C 635.048 192.956, 628.599 187.437, 625.574 173.764 L 624.969 171.028 656.734 170.764 L 688.500 170.500 688.197 161.561 C 687.551 142.510, 678.918 128.621, 664.147 122.867 C 655.423 119.469, 639.682 119.183, 630.856 122.262 M 734 121.299 C 710.673 127.965, 697.293 150.779, 702.307 175.338 C 704.305 185.128, 706.912 190.574, 712.658 196.965 C 724.579 210.224, 749.137 214.578, 766.686 206.544 C 777.401 201.638, 785.625 190.849, 787.492 179.250 L 788.176 175 777.707 175 L 767.237 175 766.111 179.475 C 761.898 196.207, 736.129 197.698, 727.800 181.692 C 725.117 176.536, 724.057 160.481, 725.995 154.355 C 729.832 142.228, 740.623 136.031, 752.811 138.955 C 758.564 140.335, 762.540 143.973, 764.484 149.637 L 765.810 153.500 776.546 153.785 L 787.282 154.071 786.656 149.506 C 785.056 137.833, 776.548 127.274, 765.247 122.935 C 758.137 120.205, 740.974 119.306, 734 121.299 M 642.459 137.009 C 636.511 137.848, 631.711 141.278, 628.673 146.860 C 624.045 155.363, 623.272 155, 646 155 C 657 155, 666 154.857, 666 154.682 C 666 154.506, 665.320 152.074, 664.489 149.276 C 662.884 143.869, 657.871 138.417, 653.732 137.575 C 648.892 136.591, 646.336 136.463, 642.459 137.009" stroke="none" fill="#fcfcfc" fill-rule="evenodd"/></svg>