<svg class="astro-TVRURPNS w-44" id="Layer_1" style="enable-background:new 0 0 504 180" version="1.1" viewBox="0 0 504 180" x="0" xml:space="preserve" xmlns="http://www.w3.org/2000/svg" y="0"><style>.st0{fill:#fff}</style><switch class="astro-TVRURPNS"><g class="astro-TVRURPNS"><path class="astro-TVRURPNS st0" d="M194.6 54.6c-21.7 0-37.5 15.5-37.5 36.9v.8c0 21.7 15.4 36.8 37.5 36.8s37.3-15.3 37.3-37.1v-.8c0-21.5-15.3-36.6-37.3-36.6zm-22.1 36.8c0-15.5 8.5-25.1 22.2-25.1s22.1 9.8 22.1 25v.8c0 15.3-8.6 25.2-21.9 25.2-13.3 0-22.4-10.3-22.4-25.1v-.8zM299.9 51.8c-2.4-.8-4.3-1-7.3-1-11.7 0-18.4 6.7-18.4 18.2v5.7h-20.4v-6.3c0-5.9 3.5-7.1 6.5-7.1 2.3 0 4.1.6 5.3 1 .2.1.4 0 .5-.1.2-.1.2-.3.2-.5v-9.4c0-.2-.2-.5-.4-.5-2.4-.7-4.3-1-7.2-1-11.9 0-18.4 6.5-18.4 18.2v58.6c0 .3.3.6.6.6h12.3c.3 0 .6-.3.6-.6V85h20.4v42.6c0 .3.3.6.6.6h12.3c.3 0 .6-.3.6-.6V85h11.6c.3 0 .6-.3.6-.6v-9.1c0-.3-.3-.6-.6-.6h-11.6v-6.2c0-5.9 3.5-7.1 6.5-7.1 2.4 0 4.3.5 5.4.9.2.1.4 0 .5-.1.1-.1.2-.3.2-.5v-9.4c.1-.2-.1-.4-.4-.5zM336.2 84.6c-12.5-1.8-14.6-4.5-14.6-9.9s4.5-8.8 12-8.8c8.2 0 12.2 3.1 13.5 10.2 0 .3.3.5.6.5h12.4c.2 0 .3-.1.4-.2.1-.1.2-.3.1-.4-1.4-13.9-10.8-21.2-27.1-21.2-15.3 0-25.9 8.7-25.9 21s7.3 19 26.2 21.4c12.6 2 14.7 4.9 14.7 10.4 0 6.2-5.3 10.4-13.2 10.4-12.3 0-14.8-6.1-15.6-12.7 0-.3-.3-.5-.6-.5h-13c-.2 0-.3.1-.4.2-.1.1-.2.3-.1.4.8 10.8 6.7 23.7 29.8 23.7 15.9 0 27.4-9.5 27.4-22.6-.1-15.3-10.2-19.7-26.6-21.9zM415.2 80c-4.5-4.1-10.7-6.3-17.9-6.3-15.9 0-27.1 11.3-27.1 27.5v.8c0 16.2 11.1 27.1 27.6 27.1 14.2 0 23.3-6.4 25-17.5 0-.2 0-.3-.1-.4-.1-.1-.3-.2-.4-.2h-11.9c-.3 0-.5.2-.6.5-.9 5-4.8 7.5-11.7 7.5-8.5 0-13.5-5.1-14.1-14.4h38.4c.3 0 .6-.3.6-.6v-3.5c-.1-8.8-2.7-15.7-7.8-20.5zm-31 15.5c1.4-7.6 6.1-11.9 13-11.9 7.5 0 11.6 4 12.3 11.9h-25.3zM483.9 107.8c-.1-.1-.3-.2-.4-.2h-11.3c-.3 0-.5.2-.6.5-.6 6.5-5.4 10.7-12.3 10.7-9 0-14.2-6.1-14.2-16.8v-.8c0-10.1 5.5-16.6 13.9-16.6 6.8 0 10.8 3.2 11.7 9.4 0 .3.3.5.6.5h11.9c.2 0 .3-.1.4-.2.1-.1.2-.3.1-.4-1.3-12.8-10.3-20.1-24.9-20.1-15.9 0-27.5 11.6-27.5 27.6v.8c0 16.2 11 27 27.5 27 14.3 0 24.2-8.2 25.2-21 .1-.2.1-.3-.1-.4z"></path><linearGradient class="astro-TVRURPNS" gradientTransform="matrix(1 0 0 -1 0 210.0236)" gradientUnits="userSpaceOnUse" id="SVGID_1_" x1="70.2755" x2="70.2755" y1="177.9512" y2="62.096"><stop class="astro-TVRURPNS" offset="0" style="stop-color:#00bfcb"></stop><stop class="astro-TVRURPNS" offset="1" style="stop-color:#6619d0"></stop></linearGradient><path class="astro-TVRURPNS" d="M74.1 85.7c0 12 .9 23.9 2.6 35.8l3.7 25.5c-3.3.6-6.7.9-10.1.9s-6.8-.3-10.1-.9l3.7-25.5c1.7-11.9 2.6-23.8 2.6-35.8V32.2c1.3-.1 2.6-.1 3.9-.1 1.3 0 2.6.1 3.9.1v53.5zm-38.9 50.4 15.1-29.3c1.1-2.2 1.7-4.7 1.7-7.2V35c-23 7.7-39.7 29.4-39.7 55 0 18.8 9 35.5 22.9 46.1zm53.3-36.5c0 2.5.6 4.9 1.7 7.2l15.1 29.3c13.9-10.6 22.9-27.3 22.9-46.1 0-25.6-16.6-47.3-39.7-55v64.6z" style="fill-rule:evenodd;clip-rule:evenodd;fill:url(#SVGID_1_)"></path><path class="astro-TVRURPNS st0" d="m489.6 77.1-1.6-3.6h.6l1.1 2.7 1.1-2.7h.6l-1.6 3.6h-.2zm-1.7 0v-3.6h.6v3.6h-.6zm3.1 0v-3.6h.6v3.6h-.6zm-5.5 0v-3.3h.6v3.3h-.6zm-1.1-3v-.6h2.8v.6h-2.8z"></path></g></switch></svg>